<svg width="566.1675048828125px" height="107.63515625px" xmlns="http://www.w3.org/2000/svg" viewBox="-33.08375244140626 21.182421875000003 566.1675048828125 107.63515625" style="background: rgba(0, 0, 0, 0);" preserveAspectRatio="xMidYMid"><defs><linearGradient id="editing-gradient-gradient" x1="0" x2="1" y1="0.5" y2="0.5" gradientUnits="objectBoundingBox"><stop offset="0" stop-color="#f0f"></stop><stop offset="1" stop-color="#00ffff"></stop></linearGradient></defs><g><g transform="translate(50.18999630212784, 95.86499977111816)"><path d="M21.89-41.02L35.58 0L30.34 0L29.38-4.10L27.07-11.14L17.86-11.33L9.54-11.14L7.04-4.35L6.02 0L0.90 0L15.94-41.02L21.89-41.02ZM18.30-15.36L25.66-15.49L19.01-35.71L18.56-35.71L11.14-15.49L18.30-15.36ZM59.65-4.03L59.90-3.58L59.58 0L42.62 0L42.82-9.60L42.62-31.87L47.42-31.87L47.23-9.98L47.36-4.03L59.65-4.03ZM97.54-31.87L100.80 0L96.51 0L95.81-9.73L94.08-24.45L93.70-24.45L84.54-3.58L80.77-3.58L72.13-24.45L71.74-24.45L70.08-10.11L69.18 0L65.09 0L68.61-31.87L74.18-31.87L75.78-27.07L82.75-9.92L83.14-9.92L90.43-27.33L92.10-31.87L97.54-31.87ZM124.22-31.87L135.42 0L130.62 0L129.86-3.46L128.19-8.19L120.58-8.26L113.79-8.19L112.06-3.71L111.17 0L106.43 0L118.72-31.87L124.22-31.87ZM120.96-12.03L126.85-12.10L121.54-27.20L121.15-27.20L115.33-12.10L120.96-12.03ZM165.06-11.14L164.99-9.15L165.18 0L160.38 0L160.64-9.15L160.58-11.14L149.76-31.87L155.01-31.87L155.65-30.02L162.82-16.32L163.14-16.32L170.94-29.82L171.78-31.87L176.90-31.87L165.06-11.14ZM209.79-41.28L209.79-41.28Q218.56-41.28 223.23-36.29L223.23-36.29L223.23-36.29Q227.90-31.30 227.90-21.95L227.90-21.95L227.90-21.95Q227.90-11.14 222.85-5.38L222.85-5.38L222.85-5.38Q217.79 0.38 208.32 0.38L208.32 0.38L208.32 0.38Q205.70 0.38 201.95 0.29L201.95 0.29L201.95 0.29Q198.21 0.19 195.01 0L195.01 0L194.94 0L195.26-12.35L194.94-41.02L195.01-41.02L209.79-41.28ZM209.15-3.90L209.15-3.90Q215.68-3.90 219.17-8.16L219.17-8.16L219.17-8.16Q222.66-12.42 222.66-20.86L222.66-20.86L222.66-20.86Q222.66-36.99 209.41-36.99L209.41-36.99L209.41-36.99Q205.38-36.99 200.13-36.74L200.13-36.74L199.87-12.80L200.06-4.29L200.06-4.29Q202.05-4.10 204.83-4L204.83-4L204.83-4Q207.62-3.90 209.15-3.90L209.15-3.90ZM247.04-3.84L255.55-4.10L255.94-3.71L255.49 0L236.10 0L236.29-9.60L236.10-31.87L255.62-31.87L255.94-31.49L255.55-27.78L247.49-28.03L240.83-27.97L240.77-18.30L247.10-18.24L252.67-18.43L252.99-17.98L252.61-14.21L246.72-14.40L240.77-14.34L240.70-9.98L240.77-3.90L247.04-3.84ZM273.34-32.19L273.34-32.19Q277.25-32.19 281.15-30.66L281.15-30.66L280.32-25.92L279.55-25.73L279.55-25.73Q277.76-27.14 276.16-27.81L276.16-27.81L276.16-27.81Q274.56-28.48 272.83-28.48L272.83-28.48L272.83-28.48Q270.08-28.48 268.48-27.04L268.48-27.04L268.48-27.04Q266.88-25.60 266.88-23.74L266.88-23.74L266.88-23.74Q266.88-21.89 268.45-20.74L268.45-20.74L268.45-20.74Q270.02-19.58 273.28-18.18L273.28-18.18L273.28-18.18Q276.16-16.90 277.86-15.87L277.86-15.87L277.86-15.87Q279.55-14.85 280.80-13.15L280.80-13.15L280.80-13.15Q282.05-11.46 282.05-9.02L282.05-9.02L282.05-9.02Q282.05-6.53 280.70-4.38L280.70-4.38L280.70-4.38Q279.36-2.24 276.77-0.93L276.77-0.93L276.77-0.93Q274.18 0.38 270.59 0.38L270.59 0.38L270.59 0.38Q268.35 0.38 265.89-0.16L265.89-0.16L265.89-0.16Q263.42-0.70 261.31-1.79L261.31-1.79L261.89-6.85L262.53-7.10L262.53-7.10Q264.32-5.31 266.72-4.32L266.72-4.32L266.72-4.32Q269.12-3.33 271.17-3.33L271.17-3.33L271.17-3.33Q273.86-3.33 275.58-4.77L275.58-4.77L275.58-4.77Q277.31-6.21 277.31-8.26L277.31-8.26L277.31-8.26Q277.31-10.18 275.74-11.33L275.74-11.33L275.74-11.33Q274.18-12.48 270.85-14.02L270.85-14.02L270.85-14.02Q268.10-15.23 266.34-16.26L266.34-16.26L266.34-16.26Q264.58-17.28 263.36-18.98L263.36-18.98L263.36-18.98Q262.14-20.67 262.14-23.10L262.14-23.10L262.14-23.10Q262.14-25.66 263.52-27.71L263.52-27.71L263.52-27.71Q264.90-29.76 267.42-30.98L267.42-30.98L267.42-30.98Q269.95-32.19 273.34-32.19L273.34-32.19ZM310.02-31.87L310.27-31.49L309.95-27.46L304-27.90L300.80-27.90L300.61-9.98L300.80 0L296 0L296.19-9.60L296.06-27.90L292.86-27.90L286.78-27.46L286.40-27.90L286.78-31.87L310.02-31.87ZM322.88-31.87L322.69-9.98L322.82 0L318.08 0L318.27-9.60L318.08-31.87L322.88-31.87ZM361.28-32L361.09-9.54L361.15 0L356.03 0L339.26-24.32L338.94-24.32L338.88-10.62L339.01 0L334.66 0L334.85-9.41L334.72-31.87L339.78-31.87L356.54-7.55L356.99-7.55L356.86-31.68L361.28-32ZM384.26-32.26L384.26-32.26Q391.23-32.26 394.98-28.16L394.98-28.16L394.98-28.16Q398.72-24.06 398.72-16.58L398.72-16.58L398.72-16.58Q398.72-8.45 394.72-4L394.72-4L394.72-4Q390.72 0.45 383.30 0.45L383.30 0.45L383.30 0.45Q376.38 0.45 372.61-3.74L372.61-3.74L372.61-3.74Q368.83-7.94 368.83-15.68L368.83-15.68L368.83-15.68Q368.83-23.62 372.86-27.94L372.86-27.94L372.86-27.94Q376.90-32.26 384.26-32.26L384.26-32.26ZM383.81-28.22L383.81-28.22Q378.75-28.22 376.29-25.34L376.29-25.34L376.29-25.34Q373.82-22.46 373.82-16.26L373.82-16.26L373.82-16.26Q373.82-9.60 376.26-6.59L376.26-6.59L376.26-6.59Q378.69-3.58 383.68-3.58L383.68-3.58L383.68-3.58Q388.80-3.58 391.30-6.53L391.30-6.53L391.30-6.53Q393.79-9.47 393.79-15.74L393.79-15.74L393.79-15.74Q393.79-22.21 391.33-25.22L391.33-25.22L391.33-25.22Q388.86-28.22 383.81-28.22L383.81-28.22Z" fill="url(#editing-gradient-gradient)"></path></g></g><style>text {
  font-size: 64px;
  font-family: Arial Black;
  dominant-baseline: central;
  text-anchor: middle;
}</style></svg>