<svg xlink="http://www.w3.org/1999/xlink" viewBox="0 0 5000 5000" xmlns="http://www.w3.org/2000/svg" style="transform: scale(1);"><defs><filter id="goo"><feGaussianBlur in="SourceGraphic" stdDeviation="25" result="blur"></feGaussianBlur><feColorMatrix in="blur" type="matrix" values="1 0 0 0 0 0 1 0 0 0 0 0 1 0 0 0 0 0 19 -9" result="good"></feColorMatrix><feComposite in="SourceGraphic" in2="goo" operator="atop"></feComposite></filter><path d="M222,220C236,208 255,206 270,214C285,224 293,242 290,258C285,276 271,288 255,291C236,292 220,282 213,267C206,250 210,231 222,220z" id="P0"></path><path d="M194,215C212,190 241,180 266,186C295,196 314,220 316,246C316,276 298,301 274,311C246,320 216,312 199,292C182,268 181,237 194,215z" id="P1"></path><path d="M250,200C273,202 291,216 298,235C303,257 295,279 279,290C260,303 237,302 221,290C203,276 197,253 202,235C211,213 230,200 250,200z" id="P2"></path><path d="M304,253C301,278 284,297 263,302C239,307 216,297 204,279C193,257 195,232 208,216C225,198 250,192 270,200C292,210 305,232 304,253z" id="P3"></path></defs><rect id="RECT" width="5000" height="5000" fill="#FFFFFF"></rect><g id="group" fill="#EDB5F5" filter="url(#goo)" opacity="0.51"><use x="-201" y="254" href="#P3"></use><use x="-216" y="757" href="#P0"></use><use x="22" y="994" href="#P3"></use><use x="-15" y="1803" href="#P0"></use><use x="-62" y="2250" href="#P1"></use><use x="-129" y="2495" href="#P2"></use><use x="69" y="3076" href="#P1"></use><use x="195" y="3459" href="#P3"></use><use x="235" y="3964" href="#P3"></use><use x="83" y="4673" href="#P0"></use><use x="62" y="5287" href="#P2"></use><use x="545" y="247" href="#P0"></use><use x="517" y="372" href="#P0"></use><use x="449" y="1195" href="#P0"></use><use x="370" y="1363" href="#P0"></use><use x="478" y="1932" href="#P0"></use><use x="568" y="2635" href="#P2"></use><use x="694" y="3189" href="#P0"></use><use x="691" y="3570" href="#P1"></use><use x="578" y="3957" href="#P0"></use><use x="732" y="4922" href="#P2"></use><use x="783" y="5495" href="#P1"></use><use x="919" y="21" href="#P3"></use><use x="976" y="765" href="#P3"></use><use x="981" y="988" href="#P0"></use><use x="1119" y="1681" href="#P2"></use><use x="1196" y="2361" href="#P3"></use><use x="1063" y="2374" href="#P0"></use><use x="1396" y="2906" href="#P1"></use><use x="935" y="3731" href="#P2"></use><use x="1226" y="4434" href="#P1"></use><use x="1201" y="4835" href="#P0"></use><use x="1124" y="5377" href="#P0"></use><use x="1697" y="9" href="#P1"></use><use x="1472" y="651" href="#P1"></use><use x="1490" y="1054" href="#P0"></use><use x="1512" y="1374" href="#P2"></use><use x="1418" y="2221" href="#P1"></use><use x="1727" y="2406" href="#P0"></use><use x="1532" y="2893" href="#P0"></use><use x="1763" y="3925" href="#P0"></use><use x="1640" y="3965" href="#P2"></use><use x="1524" y="4861" href="#P0"></use><use x="1498" y="5303" href="#P0"></use><use x="2166" y="240" href="#P1"></use><use x="2450" y="360" href="#P0"></use><use x="2467" y="885" href="#P2"></use><use x="2020" y="1591" href="#P3"></use><use x="2467" y="1963" href="#P3"></use><use x="2351" y="2587" href="#P3"></use><use x="2350" y="3073" href="#P3"></use><use x="2251" y="3651" href="#P2"></use><use x="2112" y="4277" href="#P1"></use><use x="2481" y="4488" href="#P3"></use><use x="2152" y="5319" href="#P3"></use><use x="3050" y="-20" href="#P0"></use><use x="2596" y="721" href="#P0"></use><use x="2562" y="1019" href="#P3"></use><use x="2783" y="1520" href="#P2"></use><use x="2900" y="1913" href="#P3"></use><use x="3013" y="2587" href="#P1"></use><use x="2595" y="3204" href="#P0"></use><use x="2626" y="3427" href="#P2"></use><use x="2803" y="4189" href="#P2"></use><use x="2689" y="4471" href="#P1"></use><use x="2913" y="5140" href="#P0"></use><use x="3444" y="-22" href="#P2"></use><use x="3431" y="528" href="#P2"></use><use x="3577" y="1006" href="#P1"></use><use x="3417" y="1580" href="#P1"></use><use x="3277" y="2335" href="#P0"></use><use x="3267" y="2789" href="#P0"></use><use x="3338" y="3014" href="#P0"></use><use x="3558" y="3816" href="#P0"></use><use x="3297" y="4079" href="#P0"></use><use x="3117" y="4765" href="#P2"></use><use x="3302" y="5445" href="#P2"></use><use x="3682" y="-190" href="#P1"></use><use x="3745" y="612" href="#P2"></use><use x="4087" y="995" href="#P0"></use><use x="3899" y="1617" href="#P2"></use><use x="3734" y="2098" href="#P3"></use><use x="4094" y="2817" href="#P3"></use><use x="3673" y="2999" href="#P2"></use><use x="3905" y="3584" href="#P1"></use><use x="3776" y="4229" href="#P0"></use><use x="3758" y="4519" href="#P2"></use><use x="3615" y="5027" href="#P0"></use><use x="4540" y="-87" href="#P3"></use><use x="4393" y="623" href="#P2"></use><use x="4271" y="1089" href="#P0"></use><use x="4456" y="1684" href="#P1"></use><use x="4182" y="2047" href="#P2"></use><use x="4268" y="2610" href="#P2"></use><use x="4561" y="3130" href="#P2"></use><use x="4436" y="3596" href="#P3"></use><use x="4354" y="4103" href="#P2"></use><use x="4633" y="4529" href="#P0"></use><use x="4378" y="5238" href="#P2"></use><use x="4703" y="-4" href="#P1"></use><use x="4987" y="501" href="#P1"></use><use x="5060" y="1280" href="#P2"></use><use x="4749" y="1671" href="#P2"></use><use x="4919" y="2203" href="#P3"></use><use x="4970" y="2727" href="#P0"></use><use x="5063" y="3266" href="#P3"></use><use x="5129" y="3925" href="#P2"></use><use x="4798" y="4426" href="#P2"></use><use x="5125" y="4508" href="#P3"></use><use x="4737" y="5502" href="#P3"></use></g></svg>